<svg xmlns="http://www.w3.org/2000/svg" viewBox="0 0 24 24">
  <path d="M16.5 6 H15 l 0 -3.25 C15 2.34 14.66 2 14.25 2 h -4.5 C9.34 2 9 2.34 9 2.75 V6 H7.5 C6.67 6 6 6.67 6 7.5 v 11 C6 19.33 6.67 20 7.5 20 v 0.5 C7.5 21.33 8.17 22 9 22 s 1.5 -0.67 1.5 -1.5 V20 h3 v 0.5 c 0 0.83 0.67 1.5 1.5 1.5 s 1.5 -0.67 1.5 -1.5 V20 c 0.83 0 1.5 -0.67 1.5 -1.5 v -11 C18 6.67 17.33 6 16.5 6 Z M10.5 3.5 h 3 V6 h -3 V3.5 Z M14.56 15.58 c -0.62 0.57 -1.47 0.91 -2.48 0.91 c -1.46 0 -2.73 -0.84 -3.35 -2.07 c -0.26 -0.51 -0.4 -1.08 -0.4 -1.68 c 0 -0.61 0.14 -1.18 0.4 -1.69 c 0.62 -1.22 1.89 -2.07 3.35 -2.07 c 0.99 0 1.84 0.36 2.48 0.95 c 0.01 0.01 0.01 0.04 0 0.05 L13.54 11 c -0.01 0.02 -0.04 0.02 -0.05 0 c -0.39 -0.35 -0.87 -0.53 -1.41 -0.53 c -0.98 0 -1.8 0.66 -2.1 1.55 c -0.08 0.23 -0.12 0.47 -0.12 0.71 c 0 0.25 0.04 0.49 0.12 0.71 c 0.3 0.89 1.12 1.55 2.1 1.55 c 0.5 0 0.93 -0.13 1.27 -0.36 c 0.38 -0.25 0.64 -0.63 0.73 -1.08 c 0 -0.02 -0.01 -0.05 -0.04 -0.05 h -1.93 c -0.02 0 -0.04 -0.02 -0.04 -0.04 v -1.37 c 0 -0.02 0.02 -0.04 0.04 -0.04 h 3.46 c 0.02 0 0.03 0.01 0.04 0.03 c 0.04 0.23 0.06 0.48 0.06 0.73 C15.68 13.97 15.27 14.93 14.56 15.58 Z"/>
</svg>
